<?xml version="1.0" standalone="no"?><!DOCTYPE svg PUBLIC "-//W3C//DTD SVG 1.1//EN" "http://www.w3.org/Graphics/SVG/1.1/DTD/svg11.dtd"><svg t="1575513556331" class="icon" viewBox="0 0 1024 1024" version="1.1" xmlns="http://www.w3.org/2000/svg" p-id="3593" xmlns:xlink="http://www.w3.org/1999/xlink" width="200" height="200"><defs><style type="text/css"></style></defs><path d="M800 960h-576a128 128 0 0 1-128-128V192a128 128 0 0 1 128-128h576a128 128 0 0 1 128 128v640a128 128 0 0 1-128 128z m64-768a64 64 0 0 0-64-64h-576a64 64 0 0 0-64 64v640a64 64 0 0 0 64 64h576a64 64 0 0 0 64-64V192z m-576 512h448v64h-448v-64z m0-128h448v64h-448V576z m0-320h256v256h-256V256z m64 192h128V320h-128v128z" p-id="3594"></path></svg>