<?xml version="1.0" standalone="no"?><!DOCTYPE svg PUBLIC "-//W3C//DTD SVG 1.1//EN" "http://www.w3.org/Graphics/SVG/1.1/DTD/svg11.dtd"><svg t="1575856964244" class="icon" viewBox="0 0 1024 1024" version="1.1" xmlns="http://www.w3.org/2000/svg" p-id="1401" xmlns:xlink="http://www.w3.org/1999/xlink" width="200" height="200"><defs><style type="text/css"></style></defs><path d="M847.8 395.1h-59.1v-197H237.3V395h-59.1c-21.7 0-39.4 17.6-39.4 39.4v73.7l-0.1 0.1h0.1V848c0 21.7 17.6 39.4 39.4 39.4h669.5c21.8 0 39.4-17.6 39.4-39.4V434.4c0.1-21.7-17.6-39.3-39.3-39.3zM729.6 257.2v277.2L513 665.3 296.4 534.4V257.2h433.2zM197.9 454.1h39.4v44.6l-39.4-23.8v-20.8z m630.2 374.2H197.9V543.9l290.5 175.5c6.8 6.8 15.7 10.2 24.6 10.2 8.9 0 17.9-3.4 24.6-10.2l290.5-175.5v284.4z m0-353.4l-39.4 23.8v-44.6h39.4v20.8z" fill="#666666" p-id="1402"></path><path d="M392.3 471.6l19.7 34.1 81.3-47v74.2h39.4v-84.8l79.2 45.4 19.3-33.1-70.6-40.5 73.1-42.2-19.7-34.2-81.3 47v-93.9h-39.4v84.8L414.1 336l-19.2 33.1 87.7 50.3z" fill="#666666" p-id="1403"></path></svg>