<?xml version="1.0" standalone="no"?><!DOCTYPE svg PUBLIC "-//W3C//DTD SVG 1.1//EN" "http://www.w3.org/Graphics/SVG/1.1/DTD/svg11.dtd"><svg t="1575856955129" class="icon" viewBox="0 0 1024 1024" version="1.1" xmlns="http://www.w3.org/2000/svg" p-id="1281" xmlns:xlink="http://www.w3.org/1999/xlink" width="200" height="200"><defs><style type="text/css"></style></defs><path d="M512.095225 959.616766C413.146245 959.616766 315.292385 925.821176 236.558018 864.456016 197.258778 833.826639 163.637186 797.2681 136.626557 755.797953 108.676358 712.886423 88.492138 665.706183 76.634424 615.570752 49.331464 500.137655 68.007543 380.891868 129.223532 279.799275 190.438625 178.705786 287.454827 106.892392 402.401531 77.586368 438.6836 68.331834 475.086354 64.383234 524.12369 64.383234 527.420679 64.383234 530.781139 64.400223 534.210436 64.435989 598.1611 65.766496 668.724515 86.476086 732.914766 122.754753 739.834149 126.664011 742.942508 132.645032 741.667697 139.598004 740.337458 146.860354 735.355323 151.693277 727.998784 152.860154 727.371212 152.959406 726.737381 153.010372 726.111598 153.010372 723.226733 153.010372 719.993217 151.9347 715.932772 149.623302 677.792126 127.988259 636.287443 112.538999 592.554969 103.699355 566.064634 98.345138 538.923484 95.630474 511.883353 95.630474 351.714808 95.630474 204.237164 189.035992 136.166159 333.590917 103.763953 402.416931 90.968456 475.946214 98.133684 552.138299 115.302517 734.643071 253.58024 886.036516 434.39966 920.302433 460.190905 925.189006 486.468472 927.667611 512.502879 927.667611 708.182884 927.667611 874.782701 794.165372 917.642653 603.013199 940.178927 502.515219 926.436708 404.883911 876.797725 312.832147L876.366829 312.033664C872.201788 304.326918 869.898903 299.724688 870.983297 294.747804 872.506635 287.754597 877.682764 282.924355 884.829217 281.827224 885.502381 281.723501 886.184487 281.670746 886.863016 281.670746 892.301079 281.670746 897.577333 284.982707 900.630265 290.31457 917.052629 318.986635 930.257567 349.497091 939.877656 380.996483 958.399077 441.675825 963.922963 504.013828 956.294655 566.279405 948.944374 626.263091 929.81326 683.342553 899.431442 735.932448 869.054988 788.5134 829.175556 833.587004 780.901677 869.901437 730.793357 907.59645 674.055301 933.932975 612.264485 948.180487 579.341984 955.769205 545.639934 959.616766 512.095225 959.616766L512.095225 959.616766Z" p-id="1282"></path><path d="M532.776698 334.758963C535.712857 331.193112 537.866008 328.815913 539.236215 327.627297 544.521302 316.929742 542.857503 309.203846 534.24477 304.449379 524.26183 300.883527 516.040708 304.449324 509.581159 315.146879 506.645 318.71273 502.82805 324.061427 498.130197 331.193129 494.998294 335.947598 492.649401 339.513396 491.083451 341.890631L466.41984 341.890631C448.802887 341.890631 437.841391 351.399425 433.535024 370.417298L421.496833 443.516886C417.777699 466.100611 424.726503 477.392304 442.343457 477.392304L472.292128 477.392304C468.964481 483.33539 468.572999 489.278386 471.11767 495.221472 472.09639 496.41009 472.487872 497.598689 472.292128 498.787306 471.90064 501.16454 472.194251 502.947439 473.172971 504.136056L416.799002 504.136056C408.577758 504.136056 403.684232 508.890453 402.118281 518.39939 400.552329 527.908327 403.879927 532.662725 412.101172 532.662725L447.334902 532.662725C441.462585 568.321238 422.573579 601.007718 390.667319 630.723147 382.446074 637.854849 381.173758 645.580745 386.850332 653.901065 393.897113 661.032767 401.531012 661.032767 409.752256 653.901065 431.284088 637.260425 449.096518 614.677038 463.19008 586.150227L514.27899 586.150227C522.304491 587.338844 524.946994 592.687541 522.206579 602.196478 515.74703 634.289141 501.555808 645.580834 479.632488 636.071897 469.453805 633.694663 461.134812 637.85476 454.675263 648.552314 450.56464 659.249868 453.500755 666.381464 463.483696 669.947315 514.181371 683.022104 544.619096 658.655819 554.79778 596.847728 561.648817 569.509534 554.993623 556.434942 534.831999 557.623559L474.934657 557.623559C476.500609 555.246325 477.772926 551.086227 478.751645 545.143142 480.904828 539.200056 482.177145 535.039958 482.568632 532.662725L561.844525 532.662725C570.065771 532.662725 575.546518 527.908327 578.286933 518.39939 578.678421 508.890453 574.763602 504.136056 566.542356 504.136056L510.168388 504.136056C508.406692 493.438502 505.76419 484.524007 502.240799 477.392304L548.044648 477.392304C565.857345 476.203688 576.720971 467.289193 580.635848 450.648554L592.967654 375.766049C595.316582 354.370941 588.954999 343.079247 573.882716 341.890631L528.078867 341.890631C529.449074 340.702013 531.015002 338.324814 532.776698 334.758963ZM664.609572 347.239381C666.9585 340.107678 668.524427 334.164681 669.307403 329.410213 672.63505 316.335425 669.307453 308.01523 659.324513 304.449379 648.754342 304.449379 641.218313 310.986674 636.716203 324.061463 628.690702 365.663062 611.465495 406.075438 585.040065 445.299803 578.384771 457.185974 579.363476 465.506169 587.976209 470.260638 597.95915 473.826489 606.767493 470.260691 614.401507 459.563137 614.597251 458.37452 616.163179 455.997321 619.099337 452.43147 633.780132 427.470511 644.937368 406.075723 652.571381 388.246467L694.851858 388.246467C684.673174 442.922854 671.362787 488.089627 654.920297 523.74814 654.137322 521.370906 652.277781 518.399408 649.341623 514.833557 642.686329 498.192917 636.520488 485.712624 630.843914 477.392304 624.384365 466.69475 615.967503 464.317552 605.593075 470.260638 594.827159 478.580958 592.086785 488.089751 597.37187 498.787306 607.942043 513.050711 619.588632 535.039798 632.311987 564.755226 615.086521 590.904802 589.542322 617.648286 555.678623 644.98648 544.716964 654.495418 542.07446 663.409912 547.751034 671.730232 555.189303 676.484701 564.682741 675.890401 576.231632 669.947315 604.810245 646.174973 628.005553 622.997286 645.818249 600.413561 651.690568 621.80867 657.073444 642.609157 661.967043 662.815648 664.903202 673.513202 672.43923 677.6733 684.575354 675.296066 694.754037 670.541597 699.060339 662.221402 697.494388 650.335231 695.928437 645.580762 695.634824 643.797864 696.613545 644.98648 687.41358 608.13935 679.094588 580.207266 671.656319 561.189392 694.754102 520.776411 713.055884 463.129345 726.562215 388.246467L731.847275 388.246467C741.242983 388.246467 747.506695 382.30347 750.638598 370.417298 751.421574 358.531127 747.115272 352.588131 737.719563 352.588131L663.728729 352.588131 664.609572 347.239381ZM477.577187 370.417298 556.85308 370.417298C562.725398 370.417298 565.07429 373.983096 563.899826 381.114799L561.550911 395.378133 457.611407 395.378133 459.666708 382.897716C461.036915 374.577396 467.007015 370.417298 477.577187 370.417298ZM553.916936 441.733969C554.112681 447.677055 550.687213 450.648554 543.640432 450.648554L459.079479 450.648554C452.032698 450.648554 449.096582 447.082756 450.271046 439.951052L452.913576 423.904802 556.85308 423.904802 553.916936 441.733969ZM356.020818 327.627297C346.625109 334.758999 344.667699 343.079194 350.148529 352.588131 364.242092 373.983239 374.714234 392.406528 381.565272 407.858551 387.046102 417.367488 394.875742 419.744686 405.054425 414.990217 415.624598 407.858515 418.756454 399.53832 414.450087 390.029384 404.66289 363.879806 393.897137 343.673619 382.152501 329.410213 375.301463 321.089893 366.590989 320.495594 356.020818 327.627297ZM301.995764 495.221472C301.408532 505.919026 306.302057 511.862023 316.676485 513.05064L344.863469 513.05064C355.629385 511.862023 359.544206 516.61642 356.608046 527.313974L340.165639 627.157313C337.620967 649.741038 319.710667 669.352926 286.4342 685.993566 274.49382 694.313886 270.676871 703.228381 274.983238 712.737318 280.464067 722.246254 289.663894 723.434854 302.582994 716.303152 324.702057 703.228363 341.633653 689.559471 353.378288 675.296066 370.799497 705.011493 425.998456 719.274685 518.976821 718.086068L677.528607 718.086068C688.098779 718.086068 694.851844 712.737371 697.788002 702.039817 698.375233 691.342263 693.383838 685.993566 682.813667 685.993566L515.453447 685.993566C461.428124 685.993566 425.607523 682.427768 407.990569 675.296066 389.394897 666.975746 378.824884 649.146756 376.280212 621.808562L393.897078 514.833557C400.552371 488.68398 391.352545 476.797987 366.297322 479.175221L324.016845 479.175221C313.446674 479.175221 306.106386 484.523919 301.995764 495.221472Z" p-id="1283"></path></svg>