<?xml version="1.0" standalone="no"?><!DOCTYPE svg PUBLIC "-//W3C//DTD SVG 1.1//EN" "http://www.w3.org/Graphics/SVG/1.1/DTD/svg11.dtd"><svg t="1576477576867" class="icon" viewBox="0 0 1024 1024" version="1.1" xmlns="http://www.w3.org/2000/svg" p-id="1134" xmlns:xlink="http://www.w3.org/1999/xlink" width="200" height="200"><defs><style type="text/css"></style></defs><path d="M512 64C264.576 64 64 264.576 64 512s200.576 448 448 448 448-200.576 448-448S759.424 64 512 64zM512 885.568c-206.336 0-373.568-167.232-373.568-373.568S305.664 138.432 512 138.432 885.568 305.664 885.568 512 718.336 885.568 512 885.568z" p-id="1135"></path><path d="M512 244.16c-103.808 0-187.968 84.16-187.968 187.968 0 16.512 1.408 29.696 5.44 44.928l0.064 0C334.592 494.976 351.04 508.16 370.624 508.16c23.552 0 42.688-19.136 42.688-42.688 0-3.968-0.576-7.744-1.536-11.328l0.128 0C410.304 447.04 409.408 439.68 409.408 432.128 409.408 375.552 455.36 329.6 512 329.6s102.528 45.888 102.528 102.528c0 56.64-45.888 102.528-102.528 102.528-23.616 0-42.752 19.2-42.752 42.752l0 113.728 85.44 0L554.688 615.104c83.264-19.328 145.28-93.888 145.28-182.976C699.968 328.32 615.808 244.16 512 244.16z" p-id="1136"></path><path d="M469.248 718.336l85.44 0 0 77.888-85.44 0 0-77.888Z" p-id="1137"></path></svg>