<?xml version="1.0" standalone="no"?><!DOCTYPE svg PUBLIC "-//W3C//DTD SVG 1.1//EN" "http://www.w3.org/Graphics/SVG/1.1/DTD/svg11.dtd"><svg t="1575514427363" class="icon" viewBox="0 0 1024 1024" version="1.1" xmlns="http://www.w3.org/2000/svg" p-id="5710" xmlns:xlink="http://www.w3.org/1999/xlink" width="200" height="200"><defs><style type="text/css"></style></defs><path d="M191.606923 127.750569l640.275525 0c11.530614 0 21.181415-9.55154 21.181415-21.332864 0-11.437493-9.484002-21.332864-21.181415-21.332864L191.606923 85.08484c-11.530614 0-21.181415 9.55154-21.181415 21.332864C170.425508 117.855198 179.909509 127.750569 191.606923 127.750569z" p-id="5711"></path><path d="M916.690996 575.721277c-11.791557 0-21.332864 9.541307-21.332864 21.332864L895.358131 875.042433c0 11.707646-9.457396 21.206998-21.082154 21.206998L148.515498 896.249431c-11.665691 0-21.12411-9.499351-21.12411-21.206998L127.391389 597.053118c0-11.791557-9.541307-21.332864-21.332864-21.332864s-21.332864 9.541307-21.332864 21.332864L84.72566 875.042433c0 35.20685 28.623921 63.872726 63.788815 63.872726L874.275977 938.91516c35.164894 0 63.74686-28.665877 63.74686-63.872726L938.022837 597.053118C938.02386 585.262584 928.482553 575.721277 916.690996 575.721277z" p-id="5712"></path><path d="M986.187813 427.643754c-0.666172-1.99954-1.416256-4.041036-2.25025-6.0416L867.151719 149.072177 156.347884 149.072177 39.602973 421.561221c-1.833765 4.249791-3.166109 8.499581-3.958148 12.707416-4.291746 11.749602-6.458085 24.040533-6.458085 36.623106 0 58.830897 47.831378 106.662275 106.662275 106.662275 21.707394 0 42.415019-6.458085 59.95551-18.416442 17.540492 11.958356 38.248116 18.416442 59.95551 18.416442 23.873734 0 46.747697-7.916297 65.247027-22.248723 36.582173 26.54047 90.620927 26.206872 126.744659-0.916882 36.582173 27.499307 91.412966 27.499307 127.995139 0 36.582173 27.499307 91.412966 27.499307 127.995139 0 35.248805 26.498514 87.329974 27.707039 123.703393 3.125177 17.70729 12.290931 38.706557 18.915815 60.705594 18.915815 58.830897 0 106.662275-47.831378 106.662275-106.662275C994.813261 455.143061 991.896838 440.97641 986.187813 427.643754z" p-id="5713"></path><path d="M818.231543 697.413873 697.41899 818.22131c-8.531304 8.531304-8.260128 21.769816 0.067538 30.102598 8.088212 8.093329 21.806655 8.364505 30.097482 0.072655l120.81767-120.81767c8.531304-8.531304 8.260128-21.769816-0.072655-30.092365C840.246953 689.393199 826.523393 689.123047 818.231543 697.413873z" p-id="5714"></path><path d="M796.237623 826.294173c-8.593725 8.603959-8.462742 21.978571-0.135076 30.311353 8.093329 8.083096 21.904892 8.270361 30.306236-0.135076l41.326221-41.321104c8.593725-8.603959 8.462742-21.978571 0.135076-30.311353-8.093329-8.083096-21.899776-8.270361-30.306236 0.135076L796.237623 826.294173z" p-id="5715"></path></svg>