<?xml version="1.0" standalone="no"?><!DOCTYPE svg PUBLIC "-//W3C//DTD SVG 1.1//EN" "http://www.w3.org/Graphics/SVG/1.1/DTD/svg11.dtd"><svg t="1575514221878" class="icon" viewBox="0 0 1024 1024" version="1.1" xmlns="http://www.w3.org/2000/svg" p-id="4403" xmlns:xlink="http://www.w3.org/1999/xlink" width="200" height="200"><defs><style type="text/css"></style></defs><path d="M992 960H32a32 32 0 0 1-32-32V320a32 32 0 0 1 32-32h960a32 32 0 0 1 32 32v608a32 32 0 0 1-32 32zM64 896h896V348.8H64z" p-id="4404"></path><path d="M800 545.28h-576A32 32 0 0 1 192 512a32 32 0 0 1 32-32h576a32 32 0 0 1 32 32 32 32 0 0 1-32 33.28zM480 720h-256a32 32 0 0 1 0-64h256a32 32 0 0 1 0 64zM768 339.2a30.08 30.08 0 0 1-22.4-9.6L512 96.64 278.4 329.6a31.36 31.36 0 1 1-44.8-44.8l256-256a30.72 30.72 0 0 1 44.8 0l256 256a30.72 30.72 0 0 1 0 44.8 30.08 30.08 0 0 1-22.4 9.6z" p-id="4405"></path></svg>