<?xml version="1.0" standalone="no"?><!DOCTYPE svg PUBLIC "-//W3C//DTD SVG 1.1//EN" "http://www.w3.org/Graphics/SVG/1.1/DTD/svg11.dtd"><svg t="1575513498958" class="icon" viewBox="0 0 1024 1024" version="1.1" xmlns="http://www.w3.org/2000/svg" p-id="2147" xmlns:xlink="http://www.w3.org/1999/xlink" width="200" height="200"><defs><style type="text/css"></style></defs><path d="M876.922247 245.906619 144.543024 245.906619 68.51342 444.846554c0 59.552328 49.421596 108.965737 110.240777 108.965737 60.816111 0 111.500467-48.146557 111.500467-108.965737 0 59.552328 49.417503 108.965737 110.240777 108.965737 60.820204 0 111.500467-48.146557 111.500467-108.965737 0 59.552328 49.417503 108.965737 110.23873 108.965737 60.823274 0 110.236684-48.146557 110.236684-108.965737 0 59.552328 49.41648 108.965737 111.50456 108.965737 60.823274 0 111.508653-48.146557 111.508653-108.965737L876.922247 245.906619 876.922247 245.906619 876.922247 245.906619zM816.102043 588.025511 816.102043 841.447291 207.897957 841.447291 207.897957 588.025511l-63.354933 0 0 266.096451c0 22.805402 25.341155 50.677193 48.146557 50.677193l637.355009 0c22.805402 0 48.146557-27.871791 48.146557-50.677193L878.191146 588.025511 816.102043 588.025511 816.102043 588.025511 816.102043 588.025511zM876.922247 244.642836 876.922247 244.642836l2.534729 2.215458L876.922247 244.642836 876.922247 244.642836 876.922247 244.642836zM195.219193 195.229426l633.552403 0c21.541619 0 38.014802-16.47216 38.014802-38.017872 0-21.537526-16.47216-38.010709-38.014802-38.010709L195.219193 119.200846c-21.537526 0-38.010709 16.47216-38.010709 38.010709C157.209508 178.757267 173.681668 195.229426 195.219193 195.229426L195.219193 195.229426 195.219193 195.229426zM195.219193 195.229426" p-id="2148"></path></svg>