<?xml version="1.0" standalone="no"?><!DOCTYPE svg PUBLIC "-//W3C//DTD SVG 1.1//EN" "http://www.w3.org/Graphics/SVG/1.1/DTD/svg11.dtd"><svg t="1575862505038" class="icon" viewBox="0 0 1024 1024" version="1.1" xmlns="http://www.w3.org/2000/svg" p-id="2572" xmlns:xlink="http://www.w3.org/1999/xlink" width="200" height="200"><defs><style type="text/css"></style></defs><path d="M893.7 276.3l-8.5-8.5-105.1-105.2-98.3-98.3c-0.2-0.2-0.4-0.3-0.7-0.3H150c-11 0-20 9-20 20v856c0 11 9 20 20 20h724c11 0 20-9 20-20V277c0-0.2-0.1-0.5-0.3-0.7zM366.6 381.9h46.2c0.4 0 0.8 0.2 0.9 0.6l90.6 216.8c3 7.2 5.3 15.5 6.8 25h1.1c1.2-8.3 3.7-16.7 7.6-25.3L612 382.5c0.2-0.4 0.5-0.6 0.9-0.6h44.4c0.7 0 1.2 0.7 0.9 1.4l-123 276.1c-0.2 0.4-0.5 0.6-0.9 0.6h-47c-0.4 0-0.8-0.2-0.9-0.6L365.7 383.3c-0.3-0.6 0.2-1.4 0.9-1.4z m312.7 409c0 0.5-0.4 1-1 1H345.7c-0.5 0-1-0.4-1-1v-57.7c0-0.5 0.4-1 1-1h332.5c0.5 0 1 0.4 1 1v57.7zM817.5 287H672.1c-0.5 0-1-0.4-1-1V140.5c0-0.9 1.1-1.3 1.7-0.7l66.4 66.4 79 79.1c0.7 0.6 0.2 1.7-0.7 1.7z" fill="#bfcbd9" p-id="2573"></path></svg>